<svg width="64" height="64" viewBox="0 0 64 64" fill="none" xmlns="http://www.w3.org/2000/svg">
  <g clip-path="url(#clip0_460_198)">
    <path d="M42.2648 11.7674L21.8611 31.7719C21.8251 31.8077 21.8006 31.8535 21.7905 31.9035C21.7805 31.9536 21.7855 32.0055 21.8049 32.0526C21.8242 32.0998 21.8571 32.1399 21.8992 32.1679C21.9413 32.196 21.9907 32.2105 22.041 32.2098H62.8485C62.8981 32.2087 62.9462 32.1929 62.987 32.1642C63.0277 32.1355 63.0591 32.0952 63.0774 32.0484C63.0956 32.0017 63.0999 31.9505 63.0896 31.9013C63.0792 31.8521 63.0548 31.8071 63.0194 31.7719L42.6157 11.7674C42.593 11.7434 42.5658 11.7243 42.5356 11.7112C42.5055 11.6982 42.473 11.6914 42.4403 11.6914C42.4075 11.6914 42.375 11.6982 42.3449 11.7112C42.3147 11.7243 42.2875 11.7434 42.2648 11.7674Z" stroke="black" stroke-width="2" stroke-miterlimit="10" stroke-linecap="round"/>
    <path d="M42.2558 18.2075L28.5274 32.2098H56.3441L42.6157 18.2075C42.5922 18.1833 42.5642 18.164 42.5333 18.1508C42.5025 18.1376 42.4693 18.1309 42.4358 18.1309C42.4023 18.1309 42.3691 18.1376 42.3382 18.1508C42.3073 18.164 42.2793 18.1833 42.2558 18.2075Z" stroke="black" stroke-width="2" stroke-miterlimit="10" stroke-linecap="round"/>
    <path d="M0.899635 50.6819H63.1004" stroke="black" stroke-width="2" stroke-miterlimit="10" stroke-linecap="round"/>
    <path d="M7.28704 50.6819V32.3193C7.2872 32.2848 7.29449 32.2508 7.30843 32.2193C7.32238 32.1879 7.34268 32.1598 7.36801 32.1368L31.7571 7.42533C31.7806 7.40105 31.8086 7.38177 31.8394 7.36861C31.8703 7.35544 31.9035 7.34866 31.937 7.34866C31.9705 7.34866 32.0037 7.35544 32.0346 7.36861C32.0655 7.38177 32.0935 7.40105 32.117 7.42533L39.314 14.7229" stroke="black" stroke-width="2" stroke-miterlimit="10" stroke-linecap="round"/>
    <path d="M7.28704 32.3193H1.51139C1.46104 32.32 1.41162 32.3054 1.36952 32.2774C1.32742 32.2494 1.29457 32.2092 1.2752 32.1621C1.25583 32.115 1.25084 32.063 1.26087 32.013C1.2709 31.963 1.29549 31.9171 1.33146 31.8814L31.7571 0.994296C31.7806 0.970024 31.8085 0.950739 31.8394 0.937576C31.8703 0.924412 31.9035 0.917633 31.937 0.917633C31.9705 0.917633 32.0037 0.924412 32.0346 0.937576C32.0655 0.950739 32.0935 0.970024 32.117 0.994296L42.6967 11.6853" stroke="black" stroke-width="2" stroke-miterlimit="10" stroke-linecap="round"/>
    <path d="M28.5364 32.2098V50.6819" stroke="black" stroke-width="2" stroke-miterlimit="10" stroke-linecap="round"/>
    <path d="M56.3441 32.2098V50.6819" stroke="black" stroke-width="2" stroke-miterlimit="10" stroke-linecap="round"/>
    <path d="M24.0022 35.4572H11.9471C11.808 35.4572 11.6952 35.5716 11.6952 35.7127V41.4504C11.6952 41.5915 11.808 41.7058 11.9471 41.7058H24.0022C24.1414 41.7058 24.2541 41.5915 24.2541 41.4504V35.7127C24.2541 35.5716 24.1414 35.4572 24.0022 35.4572Z" stroke="black" stroke-width="2" stroke-miterlimit="10" stroke-linecap="round"/>
    <path d="M17.9747 35.4572V41.6967" stroke="black" stroke-width="2" stroke-miterlimit="10" stroke-linecap="round"/>
    <path d="M25.9185 50.6819L18.5954 62.6956C18.5711 62.7344 18.5576 62.7792 18.5563 62.8252C18.5551 62.8712 18.5661 62.9167 18.5882 62.9569C18.6103 62.9971 18.6427 63.0304 18.682 63.0535C18.7213 63.0765 18.766 63.0884 18.8114 63.0878H44.6399C44.6859 63.0878 44.7311 63.0751 44.7705 63.0509C44.8099 63.0267 44.842 62.9921 44.8633 62.9507C44.8846 62.9093 44.8944 62.8628 44.8915 62.8162C44.8885 62.7696 44.8731 62.7247 44.8468 62.6864L37.1549 50.6819V36.7252C37.1549 36.6575 37.1814 36.5925 37.2287 36.5446C37.2759 36.4967 37.34 36.4698 37.4068 36.4698H47.5817C47.6485 36.4698 47.7125 36.4967 47.7598 36.5446C47.807 36.5925 47.8336 36.6575 47.8336 36.7252V50.6819" stroke="black" stroke-width="2" stroke-miterlimit="10" stroke-linecap="round"/>
    <path d="M4.36323 53.8016H2.33905V55.8541H4.36323V53.8016Z" fill="black"/>
    <path d="M6.38741 55.854H4.36323V57.9065H6.38741V55.854Z" fill="black"/>
    <path d="M12.7118 53.8016H10.6877V55.8541H12.7118V53.8016Z" fill="black"/>
    <path d="M19.1442 53.8016H17.12V55.8541H19.1442V53.8016Z" fill="black"/>
    <path d="M14.727 60.1688H12.7028V62.2212H14.727V60.1688Z" fill="black"/>
    <path d="M46.646 53.8016H44.6219V55.8541H46.646V53.8016Z" fill="black"/>
    <path d="M53.0335 53.8016H51.0093V55.8541H53.0335V53.8016Z" fill="black"/>
    <path d="M50.7844 60.1688H48.7602V62.2212H50.7844V60.1688Z" fill="black"/>
    <path d="M59.4119 55.854H57.3877V57.9065H59.4119V55.854Z" fill="black"/>
    <path d="M61.436 53.8016H59.4119V55.8541H61.436V53.8016Z" fill="black"/>
  </g>
  <defs>
    <clipPath id="clip0_460_198">
      <rect width="64" height="64" fill="white"/>
    </clipPath>
  </defs>
</svg>