<svg width="64" height="64" viewBox="0 0 64 64" fill="none" xmlns="http://www.w3.org/2000/svg">
  <g clip-path="url(#clip0_460_233)">
    <path d="M29.9086 23.3706C29.0965 25.3401 26.9746 28.1421 24 28.1624C21.0254 28.1828 18.7614 25.2894 17.9086 23.2183C15.6853 17.6041 20.2437 9.67514 24 9.69544C27.7564 9.71575 32.2132 17.7665 29.9086 23.3706Z" stroke="black" stroke-width="2" stroke-miterlimit="10"/>
    <path d="M26.132 27.8376V52.203C26.132 52.7829 25.9023 53.3391 25.4933 53.7501C25.0842 54.161 24.5291 54.3932 23.9492 54.3959C23.6613 54.3959 23.3761 54.3392 23.1101 54.229C22.844 54.1188 22.6023 53.9573 22.3986 53.7536C22.195 53.55 22.0335 53.3083 21.9233 53.0422C21.8131 52.7762 21.7563 52.491 21.7563 52.203V27.8376" stroke="black" stroke-width="2" stroke-miterlimit="10"/>
    <path d="M21.7563 34.3858H26.1218" stroke="black" stroke-width="2" stroke-miterlimit="10"/>
    <path d="M41.8782 27.8376V52.203C41.8782 52.7846 41.6471 53.3424 41.2359 53.7536C40.8246 54.1649 40.2669 54.3959 39.6853 54.3959C39.1054 54.3932 38.5503 54.161 38.1412 53.7501C37.7322 53.3391 37.5025 52.7829 37.5025 52.203V27.8376" stroke="black" stroke-width="2" stroke-miterlimit="10"/>
    <path d="M37.5025 34.3858H41.868" stroke="black" stroke-width="2" stroke-miterlimit="10"/>
    <path d="M45.7969 15.0761V10.4771C45.7969 10.1675 45.6739 9.87054 45.455 9.65159C45.236 9.43264 44.9391 9.30963 44.6294 9.30963C44.3206 9.31228 44.0252 9.43614 43.8068 9.65452C43.5884 9.8729 43.4646 10.1683 43.4619 10.4771V16.6396C43.4566 16.9834 43.3163 17.3113 43.0712 17.5525C42.8262 17.7938 42.4961 17.929 42.1523 17.9289C41.804 17.9289 41.4698 17.7913 41.2226 17.546C40.9754 17.3006 40.8351 16.9675 40.8325 16.6193V10.4771C40.8325 10.1675 40.7095 9.87054 40.4905 9.65159C40.2716 9.43264 39.9746 9.30963 39.665 9.30963C39.3561 9.31228 39.0607 9.43614 38.8423 9.65452C38.624 9.8729 38.5001 10.1683 38.4974 10.4771V16.7817C38.4961 16.9337 38.4649 17.0839 38.4055 17.2238C38.3461 17.3638 38.2597 17.4906 38.1513 17.5971C38.0429 17.7037 37.9145 17.7878 37.7736 17.8447C37.6327 17.9016 37.4819 17.9303 37.3299 17.9289H37.0863C36.9326 17.9303 36.7802 17.901 36.6379 17.8428C36.4956 17.7846 36.3664 17.6987 36.2577 17.59C36.149 17.4813 36.0631 17.3521 36.0049 17.2098C35.9467 17.0675 35.9174 16.9151 35.9188 16.7614V10.4771C35.9161 10.1683 35.7923 9.8729 35.5739 9.65452C35.3555 9.43614 35.0601 9.31228 34.7513 9.30963C34.4416 9.30963 34.1447 9.43264 33.9257 9.65159C33.7067 9.87054 33.5837 10.1675 33.5837 10.4771V22.0812C33.5837 23.6079 34.1902 25.072 35.2697 26.1516C36.3493 27.2311 37.8134 27.8376 39.3401 27.8376H40.0406C40.7974 27.8376 41.5467 27.6883 42.2458 27.3984C42.9449 27.1085 43.5799 26.6836 44.1145 26.148C44.6492 25.6124 45.073 24.9766 45.3617 24.277C45.6504 23.5775 45.7983 22.8278 45.7969 22.0711V17.7563" stroke="black" stroke-width="2" stroke-miterlimit="10" stroke-linecap="round"/>
    <path d="M37.5025 48.802C35.7061 49.4041 33.8235 49.7093 31.9289 49.7056C30.0885 49.7046 28.2594 49.4169 26.5076 48.8528" stroke="black" stroke-width="2" stroke-miterlimit="10" stroke-linecap="round"/>
    <path d="M45.7969 21.3401C47.2549 23.2128 48.3185 25.3614 48.9235 27.6563C49.5284 29.9512 49.6623 32.3449 49.317 34.693C48.9716 37.041 48.1543 39.2948 46.9142 41.3184C45.6741 43.342 44.0369 45.0934 42.1015 46.467" stroke="black" stroke-width="2" stroke-miterlimit="10" stroke-linecap="round"/>
    <path d="M35.9188 15.0152C36.7983 15.2181 37.6605 15.4897 38.4975 15.8274" stroke="black" stroke-width="2" stroke-miterlimit="10" stroke-linecap="round"/>
    <path d="M29.3604 14.7411C30.2111 14.6186 31.0695 14.5575 31.9289 14.5584C32.4873 14.5584 33.0355 14.5584 33.5838 14.6396" stroke="black" stroke-width="2" stroke-miterlimit="10" stroke-linecap="round"/>
    <path d="M21.7563 46.467C17.959 43.7733 15.3858 39.6828 14.6016 35.0937C13.8174 30.5045 14.8863 25.7917 17.5736 21.9898" stroke="black" stroke-width="2" stroke-miterlimit="10" stroke-linecap="round"/>
    <path d="M54.599 53.2081C49.2719 58.9155 41.9867 62.4015 34.2002 62.969C26.4138 63.5365 18.7001 61.1437 12.6017 56.2692C6.50339 51.3946 2.46997 44.3976 1.3081 36.6774C0.146223 28.9573 1.94154 21.083 6.33501 14.6295" stroke="black" stroke-width="2" stroke-miterlimit="10" stroke-linecap="round"/>
    <path d="M9.86801 10.3249C15.2368 4.82908 22.456 1.52393 30.1244 1.05089C37.7928 0.577849 45.3634 2.97066 51.367 7.76492C57.3705 12.5592 61.3788 19.4129 62.6139 26.996C63.849 34.579 62.2227 42.3505 58.0507 48.802" stroke="black" stroke-width="2" stroke-miterlimit="10" stroke-linecap="round"/>
  </g>
  <defs>
    <clipPath id="clip0_460_233">
      <rect width="64" height="64" fill="white"/>
    </clipPath>
  </defs>
</svg>